<svg width="380" height="10" viewBox="0 0 426 10" fill="none" xmlns="http://www.w3.org/2000/svg">
<path d="M213.618 4.63636C213.618 1.875 211.998 0.153409 209.765 0.153409C207.532 0.153409 205.913 1.875 205.913 4.63636C205.913 7.39773 207.532 9.11932 209.765 9.11932C211.998 9.11932 213.618 7.39773 213.618 4.63636ZM212.595 4.63636C212.595 6.90341 211.351 8.13068 209.765 8.13068C208.18 8.13068 206.936 6.90341 206.936 4.63636C206.936 2.36932 208.18 1.14205 209.765 1.14205C211.351 1.14205 212.595 2.36932 212.595 4.63636ZM215.258 9H216.264V4.85795C216.264 3.97159 216.963 3.32386 217.917 3.32386C218.186 3.32386 218.463 3.375 218.531 3.39205V2.36932C218.416 2.3608 218.152 2.35227 218.003 2.35227C217.219 2.35227 216.537 2.79545 216.298 3.44318H216.23V2.45455H215.258V9Z" fill="#BABABA"/>
<line x1="254" y1="4.5" x2="426" y2="4.50002" stroke="#F5F5F5"/>
<line x1="4.37114e-08" y1="4.5" x2="172" y2="4.50002" stroke="#F5F5F5"/>
</svg>
